0
SECTION
2
HEADER
9
$INSUNITS
70
4
9
$ACADVER
1
AC1014
9
$HANDSEED
5
FFFF
0
ENDSEC
0
SECTION
2
TABLES
0
TABLE
2
VPORT
5
8
100
AcDbSymbolTable
0
ENDTAB
0
TABLE
2
LTYPE
5
5
100
AcDbSymbolTable
0
LTYPE
5
14
100
AcDbSymbolTableRecord
100
AcDbLinetypeTableRecord
2
BYBLOCK
70
0
0
LTYPE
5
15
100
AcDbSymbolTableRecord
100
AcDbLinetypeTableRecord
2
BYLAYER
70
0
0
ENDTAB
0
TABLE
2
LAYER
5
2
100
AcDbSymbolTable
70
2
0
LAYER
5
50
100
AcDbSymbolTableRecord
100
AcDbLayerTableRecord
2
0
70
0
6
CONTINUOUS
0
ENDTAB
0
TABLE
2
STYLE
5
3
100
AcDbSymbolTable
70
1
0
STYLE
5
11
100
AcDbSymbolTableRecord
100
AcDbTextStyleTableRecord
2
STANDARD
70
0
0
ENDTAB
0
TABLE
2
VIEW
5
6
100
AcDbSymbolTable
70
0
0
ENDTAB
0
TABLE
2
UCS
5
7
100
AcDbSymbolTable
70
0
0
ENDTAB
0
TABLE
2
APPID
5
9
100
AcDbSymbolTable
70
2
0
APPID
5
12
100
AcDbSymbolTableRecord
100
AcDbRegAppTableRecord
2
ACAD
70
0
0
ENDTAB
0
TABLE
2
DIMSTYLE
5
A
100
AcDbSymbolTable
70
1
0
ENDTAB
0
TABLE
2
BLOCK_RECORD
5
1
100
AcDbSymbolTable
70
1
0
BLOCK_RECORD
5
1F
100
AcDbSymbolTableRecord
100
AcDbBlockTableRecord
2
*MODEL_SPACE
0
BLOCK_RECORD
5
1B
100
AcDbSymbolTableRecord
100
AcDbBlockTableRecord
2
*PAPER_SPACE
0
ENDTAB
0
ENDSEC
0
SECTION
2
BLOCKS
0
BLOCK
5
20
100
AcDbEntity
100
AcDbBlockBegin
2
*MODEL_SPACE
0
ENDBLK
5
21
100
AcDbEntity
100
AcDbBlockEnd
0
BLOCK
5
1C
100
AcDbEntity
100
AcDbBlockBegin
2
*PAPER_SPACE
0
ENDBLK
5
1D
100
AcDbEntity
100
AcDbBlockEnd
0
ENDSEC
0
SECTION
2
ENTITIES
0
LINE
5
100
100
AcDbEntity
8
0
100
AcDbLine
10
-5.7695953812206806
20
42.312627349990649
30
0
11
-4.8271626123951963
21
43.911203794099904
31
0
0
LINE
5
101
100
AcDbEntity
8
0
100
AcDbLine
10
-2.5700677449493119
20
20.990100875133308
30
0
11
-4.1919795201521186
21
32.297340834734165
31
0
0
LINE
5
102
100
AcDbEntity
8
0
100
AcDbLine
10
8.9853939722727443
20
56.363469672950828
30
0
11
13.025740092997797
21
52.241557695070291
31
0
0
LINE
5
103
100
AcDbEntity
8
0
100
AcDbLine
10
11.370451637422295
20
54.660177822734283
30
0
11
10.672234771154798
21
53.975777519625566
31
0
0
LINE
5
104
100
AcDbEntity
8
0
100
AcDbLine
10
-5.7635854630531371
20
43.386175723741225
30
0
11
-4.9495026361692664
21
42.90623725384782
31
0
0
LINE
5
105
100
AcDbEntity
8
0
100
AcDbLine
10
-2.9929207573462842
20
26.699390375129038
30
0
11
-3.7526547650303939
21
26.590414043372803
31
0
0
CIRCLE
5
106
100
AcDbEntity
8
0
100
AcDbCircle
10
6.1137860358085829
20
49.507532985725902
30
0
40
4
0
CIRCLE
5
107
100
AcDbEntity
8
0
100
AcDbCircle
10
9.5720047727125674
20
54.410667000590905
30
0
40
0.099999999999997868
0
LWPOLYLINE
5
108
100
AcDbEntity
8
0
100
AcDbPolyline
90
34
70
1
43
0.0
10
-12.70569871822997
20
41.485076958329579
42
-0.58086328338184146
10
-14.325795550262635
20
44.105884481292399
42
0.1692243403980116
10
-12.832325857208698
20
52.213851236719862
42
-0.3754130061042853
10
-10.826545487759658
20
55.188092396066196
42
0.3422195200062419
10
-7.9931547376818006
20
57.432858112040321
10
-7.2283665082510034
20
60.539978402541735
10
6.5465873056769457
20
59.970157969091893
42
-0.30657741067621641
10
15.987540221932397
20
52.995055996941218
10
21.250938358741493
20
40.031473726111166
10
20.543970800745306
20
40.153426639293698
42
0.74872365714043165
10
17.838316802170258
20
34.640525087652598
10
21.714380545503861
20
29.287864192279347
42
0.057735614958103844
10
22.212167993121259
20
28.74497451377685
10
24.960315813827194
20
26.366725972854393
10
24.973057391124058
20
25.672634093278202
10
14.97305739112406
20
25.48906218195361
10
15.909116432550206
20
-25.50234683437936
10
25.909116432550235
20
-25.318774923054779
10
25.97158770063632
20
-28.72187007172467
42
0.63805612373319931
10
21.500800579514401
20
-32.423260081978633
10
22.011469975747882
20
-34.881896333853433
10
10.178136437072139
20
-32.740772290441036
10
10.850204891912972
20
-30.496140692598203
10
10.949798056811904
20
-30.335428072300896
42
0.76311571802157907
10
6.7469504863754528
20
-25.8140915946353
10
4.0533641764450046
20
-27.222558251444198
10
-4.7050033009690946
20
6.228454472008389
10
-3.5852859727952691
20
9.6334216000145148
10
-2.7116354060774412
20
12.369890041133996
42
0.45350773463497995
10
-4.5519681119916653
20
15.991503685921046
10
-4.8860323319807186
20
16.076488936593254
42
0.33843651429826294
10
-10.079809112310645
20
36.096897251521185
10
-9.4249996925939126
20
36.244343256082587
42
0.91100401312601942
10
-10.113498877774127
20
41.576706224792645
0
ENDSEC
0
SECTION
2
OBJECTS
0
DICTIONARY
5
C
100
AcDbDictionary
3
ACAD_GROUP
350
D
3
ACAD_MLINESTYLE
350
17
0
DICTIONARY
5
D
100
AcDbDictionary
0
DICTIONARY
5
1A
330
C
100
AcDbDictionary
0
DICTIONARY
5
17
100
AcDbDictionary
0
ENDSEC
0
EOF
